<svg width="1085" height="228" viewBox="0 0 1085 228" fill="none" xmlns="http://www.w3.org/2000/svg">
<path d="M7.91 0.640625H227.3V227.931H0V0.640625H7.91ZM211.49 16.4506H15.8V212.121H211.48V16.4506H211.49Z" fill="white"/>
<path d="M113.646 8.54688H7.90625V114.297H113.646V8.54688Z" fill="white"/>
<path d="M219.391 114.297H113.641V220.037H219.391V114.297Z" fill="white"/>
<path d="M874.562 219.409V9.46094H1049.76C1056.19 9.46094 1062.03 11.1156 1067.28 14.4249C1072.73 17.5396 1077.02 21.7249 1080.13 26.9809C1083.25 32.2369 1084.8 38.0769 1084.8 44.5009V106.113C1084.8 112.537 1083.25 118.377 1080.13 123.633C1077.02 128.889 1072.73 133.172 1067.28 136.481C1062.03 139.596 1056.19 141.153 1049.76 141.153H898.215V219.409H874.562ZM909.603 117.209H1049.76C1052.88 117.209 1055.51 116.138 1057.65 113.997C1059.98 111.856 1061.15 109.228 1061.15 106.113V44.5009C1061.15 41.3863 1059.98 38.7583 1057.65 36.6169C1055.51 34.2809 1052.88 33.1129 1049.76 33.1129H909.603C906.488 33.1129 903.763 34.2809 901.427 36.6169C899.285 38.7583 898.215 41.3863 898.215 44.5009V106.113C898.215 109.228 899.285 111.856 901.427 113.997C903.763 116.138 906.488 117.209 909.603 117.209Z" fill="white"/>
<path d="M773.177 219.409L704.557 137.649H735.509L804.421 219.117V219.409H773.177ZM595.641 219.409V9.46094H770.841C777.265 9.46094 783.105 11.1156 788.361 14.4249C793.811 17.5396 798.094 21.7249 801.209 26.9809C804.323 32.2369 805.881 38.0769 805.881 44.5009V106.113C805.881 112.537 804.323 118.377 801.209 123.633C798.094 128.889 793.811 133.172 788.361 136.481C783.105 139.596 777.265 141.153 770.841 141.153H619.293V219.409H595.641ZM630.681 117.209H770.841C773.955 117.209 776.583 116.138 778.725 113.997C781.061 111.856 782.229 109.228 782.229 106.113V44.5009C782.229 41.3863 781.061 38.7583 778.725 36.6169C776.583 34.2809 773.955 33.1129 770.841 33.1129H630.681C627.566 33.1129 624.841 34.2809 622.505 36.6169C620.363 38.7583 619.293 41.3863 619.293 44.5009V106.113C619.293 109.228 620.363 111.856 622.505 113.997C624.841 116.138 627.566 117.209 630.681 117.209Z" fill="white"/>
<path d="M350.337 219.404C343.913 219.404 337.976 217.847 332.525 214.732C327.269 211.617 323.084 207.432 319.969 202.176C316.854 196.725 315.297 190.788 315.297 184.364V44.2041C315.297 37.7801 316.854 31.9401 319.969 26.6841C323.084 21.2334 327.269 16.9507 332.525 13.8361C337.976 10.7214 343.913 9.16406 350.337 9.16406H490.497C496.921 9.16406 502.761 10.7214 508.017 13.8361C513.468 16.9507 517.75 21.2334 520.865 26.6841C523.98 31.9401 525.537 37.7801 525.537 44.2041V52.6721H501.885V44.2041C501.885 41.0894 500.717 38.4614 498.381 36.3201C496.24 33.9841 493.612 32.816 490.497 32.816H350.337C347.222 32.816 344.497 33.9841 342.161 36.3201C340.02 38.4614 338.949 41.0894 338.949 44.2041V184.364C338.949 187.479 340.02 190.204 342.161 192.54C344.497 194.681 347.222 195.752 350.337 195.752H490.497C493.612 195.752 496.24 194.681 498.381 192.54C500.717 190.204 501.885 187.479 501.885 184.364V132.388H449.909V108.444H525.537V184.364C525.537 190.788 523.98 196.725 520.865 202.176C517.75 207.432 513.468 211.617 508.017 214.732C502.761 217.847 496.921 219.404 490.497 219.404H350.337Z" fill="white"/>
</svg>
